<?xml version="1.0" encoding="utf-8"?>
<!-- Generator: Adobe Illustrator 15.1.0, SVG Export Plug-In . SVG Version: 6.00 Build 0)  -->
<!DOCTYPE svg PUBLIC "-//W3C//DTD SVG 1.1//EN" "http://www.w3.org/Graphics/SVG/1.1/DTD/svg11.dtd">
<svg version="1.1" id="Layer_1" xmlns="http://www.w3.org/2000/svg" xmlns:xlink="http://www.w3.org/1999/xlink" x="0px" y="0px"
	 width="25px" height="25px" viewBox="0 0 25 25" enable-background="new 0 0 25 25" xml:space="preserve">
<path fill="#2CAAE1" d="M22,0H0l0.01,5.223l0.038,14.593L0.01,21.99c0,1.637,1.354,3,2.99,3L25,25V3C25,1.363,23.636,0,22,0z"/>
<path fill="#FFFFFF" d="M20.833,7.331c-0.613,0.272-1.271,0.456-1.964,0.538c0.706-0.423,1.248-1.093,1.504-1.892
	c-0.661,0.393-1.393,0.677-2.172,0.83c-0.623-0.665-1.512-1.08-2.495-1.08c-1.889,0-3.42,1.531-3.42,3.42
	c0,0.268,0.03,0.528,0.089,0.779C9.533,9.783,7.014,8.423,5.327,6.354C5.032,6.858,4.864,7.446,4.864,8.072
	c0,1.187,0.604,2.233,1.521,2.847c-0.561-0.018-1.087-0.172-1.549-0.428c0,0.015,0,0.028,0,0.043c0,1.656,1.179,3.038,2.743,3.353
	c-0.287,0.078-0.589,0.12-0.901,0.12c-0.22,0-0.435-0.021-0.643-0.062c0.435,1.358,1.697,2.348,3.193,2.375
	c-1.17,0.917-2.645,1.464-4.246,1.464c-0.276,0-0.548-0.017-0.815-0.048c1.513,0.97,3.311,1.536,5.241,1.536
	c6.289,0,9.729-5.21,9.729-9.729c0-0.148-0.003-0.296-0.01-0.442C19.795,8.619,20.375,8.017,20.833,7.331z"/>
</svg>
