<?xml version="1.0" encoding="utf-8"?>
<!-- Generator: Adobe Illustrator 15.1.0, SVG Export Plug-In . SVG Version: 6.00 Build 0)  -->
<!DOCTYPE svg PUBLIC "-//W3C//DTD SVG 1.1//EN" "http://www.w3.org/Graphics/SVG/1.1/DTD/svg11.dtd">
<svg version="1.1" id="Layer_1" xmlns="http://www.w3.org/2000/svg" xmlns:xlink="http://www.w3.org/1999/xlink" x="0px" y="0px"
	 width="49.294px" height="49.293px" viewBox="0 0 49.294 49.293" enable-background="new 0 0 49.294 49.293" xml:space="preserve">
<path fill="#EDEDED" d="M5.854,49.274c-3.225,0-5.896-2.688-5.896-5.915l0.075-4.289l-0.075-28.773L-0.062,0h43.378
	c3.226,0,5.916,2.688,5.916,5.915v43.378L5.854,49.274z"/>
<g>
	<path fill="#AE3026" d="M40.149,24.17H9.021c-4.948,0-8.959,4.015-8.959,8.962v7.201c0,4.947,4.011,8.96,8.959,8.96h31.129
		c4.947,0,8.959-4.013,8.959-8.96v-7.201C49.108,28.185,45.097,24.17,40.149,24.17z"/>
	<polygon fill="#FFFFFF" points="15.561,29.777 12.667,29.777 12.667,44.156 9.871,44.156 9.871,29.777 6.979,29.777 6.979,27.33 
		15.561,27.33 	"/>
	<path fill="#FFFFFF" d="M23.736,44.156h-2.48v-1.36c-0.461,0.503-0.936,0.887-1.433,1.146c-0.495,0.27-0.975,0.397-1.441,0.397
		c-0.575,0-1.003-0.183-1.296-0.555c-0.288-0.371-0.436-0.921-0.436-1.664V31.742h2.48v9.523c0,0.293,0.054,0.505,0.153,0.635
		c0.107,0.136,0.278,0.198,0.511,0.198c0.179,0,0.412-0.086,0.691-0.26c0.281-0.175,0.536-0.397,0.77-0.667v-9.429h2.48V44.156z"/>
	<path fill="#FFFFFF" d="M41.344,38.248v-3.166c0-1.177-0.305-2.078-0.914-2.707c-0.61-0.627-1.483-0.941-2.619-0.941
		c-1.112,0-2.014,0.337-2.716,1.015c-0.703,0.677-1.056,1.56-1.056,2.633v5.576c0,1.197,0.323,2.138,0.959,2.815
		c0.637,0.683,1.514,1.022,2.626,1.022c1.236,0,2.166-0.319,2.783-0.959c0.628-0.647,0.937-1.605,0.937-2.878v-0.637h-2.553v0.565
		c0,0.731-0.086,1.201-0.247,1.417c-0.165,0.214-0.45,0.321-0.863,0.321c-0.396,0-0.676-0.124-0.841-0.377
		c-0.163-0.253-0.242-0.707-0.242-1.36v-2.338H41.344z M36.598,35.062c0-0.521,0.082-0.895,0.257-1.113
		c0.172-0.231,0.453-0.343,0.85-0.343c0.378,0,0.657,0.112,0.825,0.343c0.173,0.218,0.262,0.591,0.262,1.113v1.254h-2.193V35.062z"
		/>
	<path fill="#FFFFFF" d="M32.117,32.383c-0.414-0.529-1.013-0.791-1.798-0.791c-0.386,0-0.767,0.096-1.146,0.296
		c-0.37,0.195-0.727,0.485-1.062,0.861V27.33h-2.509v16.826h2.509v-0.951c0.324,0.383,0.682,0.662,1.061,0.841
		c0.378,0.182,0.811,0.27,1.299,0.27c0.733,0,1.3-0.231,1.686-0.701c0.39-0.471,0.584-1.145,0.584-2.021v-6.889
		C32.739,33.688,32.533,32.913,32.117,32.383z M30.182,41.252c0,0.397-0.073,0.679-0.214,0.854c-0.143,0.178-0.365,0.266-0.67,0.266
		c-0.211,0-0.407-0.048-0.6-0.133c-0.19-0.088-0.388-0.242-0.588-0.442v-7.734c0.169-0.169,0.339-0.3,0.512-0.379
		c0.173-0.082,0.35-0.12,0.526-0.12c0.334,0,0.592,0.108,0.773,0.322c0.175,0.217,0.26,0.533,0.26,0.955V41.252z"/>
	<polygon points="13.097,19.858 16.241,19.858 16.241,12.167 19.901,1.32 16.706,1.32 14.76,8.73 14.562,8.73 12.519,1.32 
		9.352,1.32 13.097,12.514 	"/>
	<path d="M24.162,20.203c1.27,0,2.266-0.333,2.992-0.999c0.721-0.669,1.082-1.582,1.082-2.752V9.388
		c0-1.041-0.369-1.898-1.104-2.559c-0.74-0.659-1.688-0.991-2.845-0.991c-1.269,0-2.281,0.314-3.032,0.941
		c-0.751,0.627-1.127,1.468-1.127,2.531v7.088c0,1.163,0.367,2.083,1.099,2.773C21.961,19.858,22.94,20.203,24.162,20.203z
		 M23.004,9.206c0-0.297,0.106-0.537,0.316-0.725c0.217-0.184,0.492-0.273,0.833-0.273c0.37,0,0.668,0.089,0.896,0.273
		c0.227,0.188,0.341,0.428,0.341,0.725v7.451c0,0.365-0.112,0.655-0.336,0.865c-0.223,0.209-0.523,0.313-0.901,0.313
		c-0.369,0-0.654-0.1-0.853-0.309c-0.197-0.206-0.297-0.494-0.297-0.869V9.206z"/>
	<path d="M32.453,20.057c0.524,0,1.063-0.149,1.619-0.437c0.561-0.292,1.098-0.719,1.608-1.276v1.514h2.794V6.184h-2.794v10.38
		c-0.26,0.297-0.548,0.541-0.859,0.735c-0.316,0.192-0.576,0.288-0.781,0.288c-0.262,0-0.454-0.072-0.567-0.22
		c-0.116-0.144-0.181-0.377-0.181-0.699V6.184h-2.789v11.429c0,0.815,0.164,1.424,0.489,1.828
		C31.321,19.85,31.805,20.057,32.453,20.057z"/>
</g>
</svg>
