<?xml version="1.0" encoding="utf-8"?>
<!-- Generator: Adobe Illustrator 15.1.0, SVG Export Plug-In . SVG Version: 6.00 Build 0)  -->
<!DOCTYPE svg PUBLIC "-//W3C//DTD SVG 1.1//EN" "http://www.w3.org/Graphics/SVG/1.1/DTD/svg11.dtd">
<svg version="1.1" xmlns="http://www.w3.org/2000/svg" xmlns:xlink="http://www.w3.org/1999/xlink" x="0px" y="0px" width="25px"
	 height="25px" viewBox="0 0 25 25" enable-background="new 0 0 25 25" xml:space="preserve">
<g id="container_shapes_copy">
	<path fill="#0096D6" d="M3,24.99c-1.636,0-2.99-1.363-2.99-3l0.038-2.175L0.01,5.223L0,0h22c1.636,0,3,1.363,3,3v22L3,24.99z"/>
</g>
<g id="else">
	<g>
		<rect x="5.001" y="9.231" fill="#FFFFFF" width="3.332" height="11.662"/>
		<path fill="#FFFFFF" d="M18.369,10.074c-1.034-0.735-2.395-0.892-3.735-0.427l-1.303,0.449V9.231H9.999v11.662h3.332v-7.27
			l2.393-0.83c0.303-0.104,0.573-0.106,0.713-0.006c0.142,0.101,0.227,0.353,0.227,0.677v7.429h3.332v-7.429
			C19.995,12.043,19.402,10.809,18.369,10.074z"/>
		<path fill="#FFFFFF" d="M6.667,3.651c-1.245,0-2.249,1.005-2.249,2.248s1.004,2.248,2.249,2.248c1.244,0,2.248-1.005,2.248-2.248
			S7.911,3.651,6.667,3.651z"/>
	</g>
</g>
</svg>
