<?xml version="1.0" encoding="utf-8"?>
<!-- Generator: Adobe Illustrator 15.1.0, SVG Export Plug-In . SVG Version: 6.00 Build 0)  -->
<!DOCTYPE svg PUBLIC "-//W3C//DTD SVG 1.1//EN" "http://www.w3.org/Graphics/SVG/1.1/DTD/svg11.dtd">
<svg version="1.1" xmlns="http://www.w3.org/2000/svg" xmlns:xlink="http://www.w3.org/1999/xlink" x="0px" y="0px" width="25px"
	 height="25px" viewBox="0 0 25 25" enable-background="new 0 0 25 25" xml:space="preserve">
<g id="container_shapes_copy">
	<path fill="#F98D15" d="M3,24.99c-1.636,0-2.99-1.363-2.99-3l0.038-2.175L0.01,5.223L0,0h22c1.636,0,3,1.363,3,3v22L3,24.99z"/>
</g>
<g id="else">
	<path fill="#FFFFFF" d="M17.582,20.991c-0.036-7.538-5.485-13.51-13.54-13.537l0,0V4.943c4.683-0.006,8.732,1.793,11.572,4.714l0,0
		c2.841,2.917,4.482,6.939,4.479,11.333l0,0H17.582L17.582,20.991z"/>
	<path fill="#FFFFFF" d="M12.43,20.991c-0.008-4.63-3.752-8.378-8.386-8.386l0,0v-2.512c6.021,0.002,10.899,4.881,10.899,10.898l0,0
		H12.43L12.43,20.991z"/>
	<path fill="#FFFFFF" d="M3.865,18.755c0-1.335,1.078-2.416,2.416-2.416l0,0c1.334,0,2.415,1.081,2.415,2.416l0,0
		c0,1.336-1.081,2.416-2.415,2.416l0,0C4.943,21.171,3.865,20.092,3.865,18.755L3.865,18.755z M6.28,18.755L6.28,18.755L6.28,18.755
		L6.28,18.755z"/>
</g>
</svg>
